<svg width="1280" height="640" viewBox="0 0 1280 640" fill="none" xmlns="http://www.w3.org/2000/svg">
  <rect width="1280" height="640" rx="32" fill="#F8FAFC"/>
  <rect x="28" y="28" width="206" height="584" rx="18" fill="#FFFFFF" stroke="#E4E7EC"/>
  <rect x="56" y="58" width="36" height="36" rx="10" fill="#E7F8F5"/>
  <path d="M74 68c7 0 13 6 13 13S81 94 74 94s-13-6-13-13 6-13 13-13Z" fill="#079685" opacity=".22"/>
  <path d="M68 79h12M74 73v12" stroke="#04786B" stroke-width="3" stroke-linecap="round"/>
  <rect x="106" y="59" width="92" height="13" rx="6.5" fill="#101828"/>
  <rect x="106" y="80" width="64" height="10" rx="5" fill="#98A2B3"/>
  <rect x="52" y="130" width="158" height="40" rx="10" fill="#E7F8F5"/>
  <rect x="72" y="144" width="94" height="12" rx="6" fill="#04786B"/>
  <rect x="52" y="186" width="128" height="12" rx="6" fill="#475467"/>
  <rect x="52" y="226" width="118" height="12" rx="6" fill="#475467"/>
  <rect x="52" y="266" width="112" height="12" rx="6" fill="#475467"/>
  <rect x="52" y="334" width="76" height="10" rx="5" fill="#98A2B3"/>
  <rect x="52" y="366" width="94" height="12" rx="6" fill="#475467"/>
  <rect x="52" y="406" width="88" height="12" rx="6" fill="#98A2B3"/>
  <rect x="52" y="446" width="104" height="12" rx="6" fill="#98A2B3"/>
  <rect x="258" y="28" width="994" height="58" rx="18" fill="#FFFFFF" stroke="#E4E7EC"/>
  <rect x="298" y="49" width="190" height="16" rx="8" fill="#101828"/>
  <rect x="524" y="42" width="490" height="28" rx="10" fill="#FFFFFF" stroke="#E4E7EC"/>
  <rect x="1040" y="43" width="72" height="28" rx="14" fill="#ECFDF3"/>
  <circle cx="1059" cy="57" r="5" fill="#16A34A"/>
  <rect x="1072" y="52" width="24" height="10" rx="5" fill="#15803D"/>
  <rect x="1140" y="42" width="34" height="34" rx="10" fill="#FFFFFF" stroke="#E4E7EC"/>
  <rect x="1190" y="42" width="34" height="34" rx="10" fill="#111827"/>
  <rect x="280" y="124" width="164" height="16" rx="8" fill="#667085"/>
  <rect x="280" y="150" width="272" height="30" rx="12" fill="#101828"/>
  <rect x="280" y="191" width="448" height="17" rx="8.5" fill="#667085"/>
  <rect x="1050" y="134" width="82" height="38" rx="10" fill="#FFFFFF" stroke="#E4E7EC"/>
  <rect x="1148" y="134" width="84" height="38" rx="10" fill="#079685"/>
  <g>
    <rect x="280" y="238" width="148" height="106" rx="14" fill="#FFFFFF" stroke="#E4E7EC"/>
    <rect x="444" y="238" width="148" height="106" rx="14" fill="#FFFFFF" stroke="#E4E7EC"/>
    <rect x="608" y="238" width="148" height="106" rx="14" fill="#FFFFFF" stroke="#E4E7EC"/>
    <rect x="772" y="238" width="148" height="106" rx="14" fill="#FFFFFF" stroke="#E4E7EC"/>
    <rect x="936" y="238" width="148" height="106" rx="14" fill="#FFFFFF" stroke="#E4E7EC"/>
    <rect x="1100" y="238" width="132" height="106" rx="14" fill="#FFFFFF" stroke="#E4E7EC"/>
    <rect x="306" y="262" width="86" height="12" rx="6" fill="#667085"/>
    <rect x="470" y="262" width="82" height="12" rx="6" fill="#667085"/>
    <rect x="634" y="262" width="72" height="12" rx="6" fill="#667085"/>
    <rect x="798" y="262" width="66" height="12" rx="6" fill="#667085"/>
    <rect x="962" y="262" width="76" height="12" rx="6" fill="#667085"/>
    <rect x="1126" y="262" width="56" height="12" rx="6" fill="#667085"/>
    <rect x="306" y="292" width="34" height="34" rx="8" fill="#101828"/>
    <rect x="470" y="292" width="34" height="34" rx="8" fill="#079685"/>
    <rect x="634" y="292" width="34" height="34" rx="8" fill="#EF4444"/>
    <rect x="798" y="292" width="34" height="34" rx="8" fill="#F59E0B"/>
    <rect x="962" y="292" width="34" height="34" rx="8" fill="#16A34A"/>
    <rect x="1126" y="292" width="34" height="34" rx="8" fill="#98A2B3"/>
  </g>
  <rect x="280" y="372" width="626" height="214" rx="16" fill="#FFFFFF" stroke="#E4E7EC"/>
  <rect x="306" y="402" width="172" height="22" rx="10" fill="#101828"/>
  <rect x="802" y="400" width="68" height="28" rx="14" fill="#ECFDF3"/>
  <circle cx="820" cy="414" r="5" fill="#16A34A"/>
  <rect x="306" y="456" width="548" height="42" rx="10" fill="#FFFFFF" stroke="#E4E7EC"/>
  <rect x="326" y="471" width="52" height="12" rx="6" fill="#101828"/>
  <rect x="406" y="468" width="158" height="18" rx="9" fill="#101828"/>
  <rect x="712" y="468" width="88" height="20" rx="10" fill="#EFF6FF"/>
  <rect x="306" y="514" width="548" height="42" rx="10" fill="#FFFFFF" stroke="#E4E7EC"/>
  <rect x="326" y="529" width="52" height="12" rx="6" fill="#101828"/>
  <rect x="406" y="526" width="192" height="18" rx="9" fill="#101828"/>
  <rect x="712" y="526" width="104" height="20" rx="10" fill="#FEF3F2"/>
  <rect x="930" y="372" width="302" height="214" rx="16" fill="#FFFFFF" stroke="#E4E7EC"/>
  <rect x="958" y="402" width="152" height="22" rx="10" fill="#101828"/>
  <rect x="958" y="454" width="226" height="46" rx="10" fill="#F6F8FB" stroke="#E4E7EC"/>
  <circle cx="982" cy="477" r="13" fill="#E7F8F5"/>
  <rect x="1010" y="464" width="96" height="12" rx="6" fill="#101828"/>
  <rect x="1010" y="483" width="138" height="10" rx="5" fill="#667085"/>
  <rect x="958" y="518" width="226" height="46" rx="10" fill="#F6F8FB" stroke="#E4E7EC"/>
  <circle cx="982" cy="541" r="13" fill="#E7F8F5"/>
  <rect x="1010" y="528" width="118" height="12" rx="6" fill="#101828"/>
  <rect x="1010" y="547" width="132" height="10" rx="5" fill="#667085"/>
</svg>
