<svg width="1280" height="560" viewBox="0 0 1280 560" fill="none" xmlns="http://www.w3.org/2000/svg" role="img" aria-labelledby="title desc">
  <title id="title">MedCRM platform preview</title>
  <desc id="desc">A polished preview banner for the MedCRM clinic operations platform.</desc>
  <defs>
    <linearGradient id="bg" x1="0" y1="0" x2="1280" y2="560" gradientUnits="userSpaceOnUse">
      <stop stop-color="#F8FAFC"/>
      <stop offset="1" stop-color="#E7F8F5"/>
    </linearGradient>
    <linearGradient id="panel" x1="92" y1="70" x2="1188" y2="500" gradientUnits="userSpaceOnUse">
      <stop stop-color="#FFFFFF"/>
      <stop offset="1" stop-color="#F6F8FB"/>
    </linearGradient>
    <filter id="shadow" x="42" y="26" width="1196" height="512" filterUnits="userSpaceOnUse" color-interpolation-filters="sRGB">
      <feFlood flood-opacity="0" result="BackgroundImageFix"/>
      <feColorMatrix in="SourceAlpha" type="matrix" values="0 0 0 0 0 0 0 0 0 0 0 0 0 0 0 0 0 0 127 0" result="hardAlpha"/>
      <feOffset dy="18"/>
      <feGaussianBlur stdDeviation="24"/>
      <feComposite in2="hardAlpha" operator="out"/>
      <feColorMatrix type="matrix" values="0 0 0 0 0.062745 0 0 0 0 0.094118 0 0 0 0 0.156863 0 0 0 0.12 0"/>
      <feBlend mode="normal" in2="BackgroundImageFix" result="effect1_dropShadow"/>
      <feBlend mode="normal" in="SourceGraphic" in2="effect1_dropShadow" result="shape"/>
    </filter>
  </defs>

  <rect width="1280" height="560" rx="32" fill="url(#bg)"/>
  <circle cx="1080" cy="96" r="116" fill="#079685" opacity="0.08"/>
  <circle cx="184" cy="466" r="132" fill="#2563EB" opacity="0.06"/>

  <g filter="url(#shadow)">
    <rect x="78" y="58" width="1124" height="444" rx="28" fill="url(#panel)" stroke="#E4E7EC"/>

    <rect x="78" y="58" width="260" height="444" rx="28" fill="#0B1620"/>
    <path d="M338 58v444" stroke="#E4E7EC"/>

    <rect x="110" y="94" width="48" height="48" rx="14" fill="#E7F8F5"/>
    <path d="M128 118h13M134.5 111.5v13" stroke="#04786B" stroke-width="4" stroke-linecap="round"/>
    <text x="174" y="115" fill="#FFFFFF" font-family="Inter, Arial, sans-serif" font-size="24" font-weight="800">MedCRM</text>
    <text x="174" y="138" fill="#98A2B3" font-family="Inter, Arial, sans-serif" font-size="13" font-weight="600">Enterprise Clinic OS</text>

    <rect x="110" y="186" width="196" height="38" rx="10" fill="#E7F8F5"/>
    <text x="134" y="211" fill="#04786B" font-family="Inter, Arial, sans-serif" font-size="14" font-weight="800">Operations</text>
    <text x="134" y="260" fill="#CBD5E1" font-family="Inter, Arial, sans-serif" font-size="14" font-weight="700">Patients CRM</text>
    <text x="134" y="306" fill="#CBD5E1" font-family="Inter, Arial, sans-serif" font-size="14" font-weight="700">Smart Scheduling</text>
    <text x="134" y="352" fill="#CBD5E1" font-family="Inter, Arial, sans-serif" font-size="14" font-weight="700">Finance</text>
    <text x="134" y="398" fill="#CBD5E1" font-family="Inter, Arial, sans-serif" font-size="14" font-weight="700">EMR / FHIR</text>

    <rect x="110" y="430" width="196" height="42" rx="12" fill="#132231" stroke="#24364A"/>
    <circle cx="132" cy="451" r="6" fill="#22C55E"/>
    <text x="150" y="456" fill="#D1FAE5" font-family="Inter, Arial, sans-serif" font-size="13" font-weight="800">Realtime ready</text>

    <text x="382" y="118" fill="#101828" font-family="Inter, Arial, sans-serif" font-size="42" font-weight="850">Clinic operations platform</text>
    <text x="384" y="151" fill="#667085" font-family="Inter, Arial, sans-serif" font-size="17" font-weight="600">CRM, scheduling, reception, EMR, finance, inventory and audit in one tenant-aware SaaS workspace.</text>

    <rect x="384" y="184" width="132" height="34" rx="17" fill="#ECFDF3"/>
    <text x="411" y="206" fill="#15803D" font-family="Inter, Arial, sans-serif" font-size="13" font-weight="800">Live queue</text>
    <rect x="528" y="184" width="128" height="34" rx="17" fill="#EFF6FF"/>
    <text x="555" y="206" fill="#1D4ED8" font-family="Inter, Arial, sans-serif" font-size="13" font-weight="800">API gateway</text>
    <rect x="668" y="184" width="118" height="34" rx="17" fill="#FEF3F2"/>
    <text x="693" y="206" fill="#B42318" font-family="Inter, Arial, sans-serif" font-size="13" font-weight="800">Audit log</text>
    <rect x="798" y="184" width="108" height="34" rx="17" fill="#F5F3FF"/>
    <text x="824" y="206" fill="#6D28D9" font-family="Inter, Arial, sans-serif" font-size="13" font-weight="800">FHIR R4</text>

    <rect x="384" y="250" width="772" height="212" rx="20" fill="#FFFFFF" stroke="#E4E7EC"/>
    <rect x="416" y="282" width="166" height="24" rx="12" fill="#101828"/>
    <rect x="1018" y="280" width="98" height="32" rx="16" fill="#E7F8F5"/>
    <circle cx="1040" cy="296" r="5" fill="#16A34A"/>
    <text x="1054" y="301" fill="#04786B" font-family="Inter, Arial, sans-serif" font-size="13" font-weight="800">Live</text>

    <rect x="416" y="332" width="152" height="88" rx="14" fill="#F8FAFC" stroke="#E4E7EC"/>
    <text x="438" y="358" fill="#667085" font-family="Inter, Arial, sans-serif" font-size="12" font-weight="800">TODAY VISITS</text>
    <text x="438" y="392" fill="#101828" font-family="Inter, Arial, sans-serif" font-size="34" font-weight="850">24</text>

    <rect x="592" y="332" width="152" height="88" rx="14" fill="#F8FAFC" stroke="#E4E7EC"/>
    <text x="614" y="358" fill="#667085" font-family="Inter, Arial, sans-serif" font-size="12" font-weight="800">PATIENTS</text>
    <text x="614" y="392" fill="#101828" font-family="Inter, Arial, sans-serif" font-size="34" font-weight="850">7</text>

    <rect x="768" y="332" width="152" height="88" rx="14" fill="#F8FAFC" stroke="#E4E7EC"/>
    <text x="790" y="358" fill="#667085" font-family="Inter, Arial, sans-serif" font-size="12" font-weight="800">DOCTOR LOAD</text>
    <text x="790" y="392" fill="#101828" font-family="Inter, Arial, sans-serif" font-size="34" font-weight="850">76%</text>

    <rect x="944" y="332" width="172" height="88" rx="14" fill="#F8FAFC" stroke="#E4E7EC"/>
    <text x="966" y="358" fill="#667085" font-family="Inter, Arial, sans-serif" font-size="12" font-weight="800">ACTIVE MODULES</text>
    <text x="966" y="392" fill="#101828" font-family="Inter, Arial, sans-serif" font-size="34" font-weight="850">12</text>

    <rect x="416" y="444" width="700" height="1" fill="#E4E7EC"/>
    <rect x="416" y="462" width="226" height="12" rx="6" fill="#079685"/>
    <rect x="668" y="462" width="190" height="12" rx="6" fill="#2563EB"/>
    <rect x="884" y="462" width="232" height="12" rx="6" fill="#F59E0B"/>
  </g>
</svg>
